<?xml version="1.0" standalone="no"?>
<!DOCTYPE svg PUBLIC "-//W3C//DTD SVG 20010904//EN"
 "http://www.w3.org/TR/2001/REC-SVG-20010904/DTD/svg10.dtd">
<svg version="1.0" xmlns="http://www.w3.org/2000/svg"
 width="300.000000pt" height="300.000000pt" viewBox="0 0 300.000000 300.000000"
 preserveAspectRatio="xMidYMid meet">
<metadata>
Created by potrace 1.10, written by Peter Selinger 2001-2011
</metadata>
<g transform="translate(0.000000,300.000000) scale(0.100000,-0.100000)"
fill="#000000" stroke="none">
<path d="M1494 2712 c-12 -9 -24 -24 -27 -33 -4 -12 -25 -17 -84 -22 -342 -26
-665 -300 -763 -647 -31 -108 -38 -281 -16 -390 78 -383 381 -667 767 -720 71
-10 86 -16 110 -41 45 -48 123 -38 153 20 12 22 25 30 57 35 172 28 389 161
512 315 94 118 187 334 187 434 0 15 5 27 10 27 6 0 22 11 35 25 18 17 25 35
25 63 0 53 -25 82 -77 89 -37 5 -46 2 -73 -25 -21 -22 -30 -40 -30 -64 0 -33
24 -71 51 -80 9 -3 7 -25 -5 -88 -62 -306 -324 -573 -628 -640 -55 -13 -57
-12 -88 14 -45 37 -84 35 -125 -8 l-32 -34 -84 13 c-234 35 -438 160 -575 352
-162 226 -195 534 -84 794 106 249 338 437 613 495 89 18 147 19 147 0 0 -20
45 -46 80 -46 44 0 70 16 86 56 12 29 12 39 0 68 -8 19 -23 39 -34 45 -31 16
-84 13 -108 -7z m110 -38 c23 -22 20 -51 -8 -79 -31 -31 -70 -25 -110 15 l-29
28 30 30 c44 45 77 47 117 6z m810 -849 c35 -32 33 -58 -8 -103 l-34 -37 -27
25 c-54 50 -50 107 8 130 31 13 31 12 61 -15z m-799 -869 l30 -24 -31 -39
c-41 -51 -70 -53 -121 -10 l-40 33 33 32 c42 40 86 42 129 8z"/>
<path d="M1486 2226 c-23 -24 -47 -37 -85 -45 -323 -69 -437 -477 -196 -700
52 -48 149 -97 210 -106 31 -5 44 -13 57 -36 47 -81 170 -47 170 46 0 83 -105
123 -159 61 -23 -27 -25 -28 -70 -17 -113 29 -201 98 -250 199 -25 50 -28 68
-28 152 0 112 18 162 86 235 50 55 104 87 178 109 l53 16 28 -30 c35 -37 70
-46 107 -26 42 21 55 41 55 83 0 29 -7 43 -31 65 -44 39 -85 37 -125 -6z m114
-16 c26 -26 25 -51 -1 -84 -32 -40 -67 -33 -135 29 -8 7 -2 19 23 42 40 38 83
43 113 13z m-6 -775 c26 -27 29 -56 9 -84 -28 -37 -72 -39 -106 -5 -15 15 -27
31 -27 35 0 5 -8 9 -17 9 -28 0 69 58 99 59 15 1 33 -6 42 -14z"/>
<path d="M795 1846 c-48 -48 -41 -111 17 -146 27 -16 34 -28 45 -80 22 -108
77 -205 173 -301 95 -96 172 -144 290 -181 98 -30 282 -32 375 -4 238 73 411
246 474 476 12 41 21 101 21 132 l0 58 -294 0 c-286 0 -295 1 -301 20 -7 22
-53 50 -82 50 -34 0 -81 -37 -88 -70 -13 -58 34 -120 90 -120 25 0 74 32 81
52 5 17 25 18 276 18 l270 0 -7 -42 c-40 -260 -214 -457 -462 -523 -35 -10
-100 -16 -164 -16 -89 0 -119 4 -189 27 -194 64 -341 212 -400 400 -25 84 -25
90 5 126 34 40 33 82 -4 119 -38 38 -91 40 -126 5z m89 -7 c40 -18 49 -84 16
-114 -11 -10 -20 -24 -20 -32 0 -19 -4 -17 -49 24 -50 44 -55 81 -15 112 31
24 35 25 68 10z m694 -32 l32 -33 -36 -32 c-41 -37 -75 -41 -104 -12 -26 26
-25 68 2 91 32 29 69 24 106 -14z"/>
<path d="M572 675 c-66 -29 -80 -130 -26 -186 38 -40 81 -46 139 -20 46 20 46
21 43 63 l-3 43 -45 0 c-35 0 -45 -4 -48 -17 -3 -14 3 -18 27 -18 24 0 31 -4
31 -19 0 -22 -19 -31 -65 -31 -59 0 -91 63 -63 125 11 24 21 29 78 38 15 3 9
5 -16 6 -56 2 -79 -25 -79 -91 0 -59 27 -88 82 -88 47 0 73 16 73 45 0 21 -5
25 -32 26 -26 0 -29 2 -14 8 11 4 30 6 43 3 33 -6 32 -56 -2 -78 -32 -21 -97
-22 -128 -1 -53 35 -59 122 -12 167 32 30 105 32 135 5 24 -22 18 -34 -7 -14
-16 13 -17 12 -4 -3 16 -22 41 -23 41 -3 0 39 -94 65 -148 40z"/>
<path d="M956 662 c-26 -54 -78 -193 -74 -198 3 -2 23 42 44 98 47 124 62 132
95 54 29 -72 36 -66 8 7 -25 65 -52 80 -73 39z"/>
<path d="M1242 568 l2 -113 3 108 4 107 69 0 c60 0 71 -3 84 -22 21 -30 20
-44 -4 -68 -11 -11 -16 -20 -12 -20 16 0 42 36 42 58 0 44 -33 62 -115 62
l-75 0 2 -112z"/>
<path d="M1600 673 c0 -5 28 -7 63 -5 55 3 66 1 90 -22 21 -19 27 -34 27 -66
0 -52 -13 -76 -53 -100 -23 -14 -27 -20 -14 -20 10 0 32 13 48 29 25 25 29 37
29 81 0 44 -4 56 -29 81 -27 26 -36 29 -95 29 -36 0 -66 -3 -66 -7z"/>
<path d="M1962 568 l2 -113 3 108 4 107 77 -2 77 -2 -70 -5 -70 -6 0 -35 0
-35 65 -6 65 -5 -65 -5 -65 -4 0 -40 0 -40 70 -3 c40 -2 73 -8 77 -15 5 -8 8
-6 8 6 0 15 -10 17 -70 17 l-70 0 0 35 0 35 60 0 c47 0 60 3 60 15 0 12 -13
15 -60 15 -60 0 -60 0 -60 30 l0 30 65 0 c51 0 65 3 65 15 0 12 -16 15 -85 15
l-85 0 2 -112z"/>
<path d="M2336 619 c-15 -34 -24 -64 -22 -67 3 -3 10 6 15 19 28 74 41 99 54
99 8 0 29 -40 52 -97 21 -54 42 -102 48 -108 12 -12 12 -15 -38 114 -33 84
-44 101 -61 101 -17 0 -27 -14 -48 -61z"/>
<path d="M962 609 c-12 -28 -22 -56 -22 -60 0 -11 77 -12 83 -1 3 4 -1 21 -8
37 -7 17 -14 24 -14 17 -1 -7 4 -22 9 -33 10 -17 7 -19 -25 -19 -19 0 -35 2
-35 4 0 18 33 75 40 71 12 -7 13 5 1 23 -5 9 -15 -3 -29 -39z"/>
<path d="M1270 615 l0 -45 46 0 c25 0 54 5 65 10 21 12 26 54 8 66 -8 4 -9 -1
-4 -15 10 -33 -11 -51 -61 -51 -43 0 -44 0 -44 34 0 34 1 35 48 39 l47 3 -52
2 -53 2 0 -45z"/>
<path d="M1625 637 c-3 -12 -5 -52 -3 -87 l3 -65 41 -3 c48 -4 94 27 94 61 -1
18 -3 17 -14 -9 -15 -34 -32 -44 -77 -44 l-29 0 0 80 0 80 33 0 c40 0 74 -23
80 -53 4 -22 4 -22 6 0 2 31 -44 63 -90 63 -32 0 -40 -4 -44 -23z"/>
<path d="M2361 617 c-30 -69 -28 -77 18 -77 22 0 42 3 45 8 2 4 -6 32 -19 62
l-23 55 -21 -48z m27 -65 c-17 -2 -32 -1 -35 1 -2 3 3 22 12 43 l17 39 18 -40
17 -40 -29 -3z"/>
<path d="M1272 508 l2 -53 3 48 c4 44 6 47 33 47 23 0 33 -8 55 -46 15 -25 29
-43 32 -40 3 2 -8 24 -24 48 -24 36 -35 44 -66 46 l-37 3 2 -53z"/>
<path d="M1056 528 c3 -13 13 -34 21 -48 l14 -25 -7 25 c-11 41 -23 70 -29 70
-4 0 -3 -10 1 -22z"/>
<path d="M1385 523 c36 -55 45 -67 45 -58 0 13 -48 85 -57 85 -3 0 3 -12 12
-27z"/>
<path d="M2287 505 c-19 -41 -20 -45 -9 -45 8 0 34 71 28 77 -1 1 -10 -13 -19
-32z"/>
<path d="M919 504 c-5 -15 -12 -31 -15 -35 -3 -5 -1 -9 5 -9 5 0 12 14 16 30
6 28 9 30 56 30 47 0 51 -2 61 -31 6 -16 12 -28 14 -26 2 2 -1 18 -7 35 -10
31 -13 32 -65 32 -50 0 -55 -2 -65 -26z"/>
<path d="M2326 521 c-3 -4 -10 -21 -16 -37 -9 -27 -9 -28 5 -10 8 11 15 25 15
32 0 8 18 14 48 17 l47 3 -47 2 c-26 1 -49 -2 -52 -7z"/>
<path d="M1110 389 c0 -16 -5 -20 -20 -16 -27 7 -50 -17 -50 -52 0 -36 17 -51
57 -51 l33 0 0 70 c0 40 -4 70 -10 70 -5 0 -10 -10 -10 -21z m-2 -62 c2 -18
-2 -29 -13 -33 -24 -9 -39 10 -31 41 9 35 40 30 44 -8z"/>
<path d="M1582 380 c-7 -12 -8 -20 -2 -20 5 0 10 -20 10 -45 0 -38 3 -45 20
-45 11 0 20 5 20 10 0 6 -4 10 -10 10 -15 0 -12 67 3 73 10 4 10 6 0 6 -7 1
-13 8 -13 16 0 21 -13 19 -28 -5z"/>
<path d="M747 373 c-11 -10 -8 -103 3 -103 6 0 10 25 10 55 0 56 -1 60 -13 48z"/>
<path d="M865 372 c-9 -10 -5 -102 5 -102 6 0 10 15 10 33 0 31 14 57 32 57 4
0 8 -20 8 -45 0 -33 4 -45 15 -45 17 0 21 65 6 89 -9 14 -66 23 -76 13z"/>
<path d="M1232 328 l3 -53 38 -3 37 -3 0 56 c0 35 -4 54 -10 50 -5 -3 -10 -24
-10 -46 0 -32 -3 -39 -20 -39 -17 0 -20 7 -20 45 0 25 -5 45 -11 45 -6 0 -9
-21 -7 -52z"/>
<path d="M1428 369 c-27 -15 -21 -39 12 -52 39 -15 39 -31 -1 -23 -22 4 -29 2
-26 -7 2 -6 19 -12 38 -12 27 0 35 4 37 21 2 16 -4 24 -27 32 -42 15 -41 35 2
27 30 -6 31 -5 13 10 -23 18 -25 18 -48 4z"/>
<path d="M1714 371 c-2 -2 -4 -26 -4 -53 0 -36 4 -48 15 -48 11 0 15 11 15 39
0 25 5 41 15 45 24 9 17 24 -11 22 -14 0 -28 -3 -30 -5z"/>
<path d="M1860 326 c0 -31 5 -56 10 -56 6 0 10 22 10 49 0 28 -4 53 -10 56 -6
4 -10 -15 -10 -49z"/>
<path d="M1992 364 c-25 -18 -30 -65 -8 -83 18 -15 68 -11 73 6 3 7 -7 10 -24
10 -15 -1 -29 2 -30 7 -2 6 12 10 30 10 26 1 31 5 29 21 -3 18 -28 45 -42 45
-3 0 -16 -7 -28 -16z m46 -21 c2 -8 -6 -13 -22 -13 -19 0 -24 4 -19 15 6 18
34 16 41 -2z"/>
<path d="M2173 373 c-7 -2 -13 -15 -13 -28 0 -18 7 -25 30 -30 43 -10 38 -29
-6 -22 -25 4 -34 2 -31 -6 2 -7 21 -12 43 -12 32 0 39 3 39 20 0 12 -11 25
-27 33 -16 7 -28 17 -28 23 0 12 27 12 35 -1 4 -6 11 -7 17 -4 7 5 4 12 -7 21
-19 13 -31 15 -52 6z"/>
</g>
</svg>
